<?xml version="1.0" encoding="utf-8"?>
<!-- Generator: Adobe Illustrator 25.2.3, SVG Export Plug-In . SVG Version: 6.00 Build 0)  -->
<svg version="1.1" id="Layer_1" xmlns="http://www.w3.org/2000/svg" xmlns:xlink="http://www.w3.org/1999/xlink" x="0px" y="0px"
	 viewBox="0 0 16 16" style="enable-background:new 0 0 16 16;" xml:space="preserve">
<style type="text/css">
	.st0{fill:none;}
	.st1{fill:none;stroke:#000000;stroke-width:2;stroke-linecap:round;stroke-linejoin:round;}
	.st2{fill:none;stroke:#000000;stroke-miterlimit:10;}
</style>
<g>
	<rect x="0.4" y="-0.9" class="st0" width="11.9" height="12.2"/>
	<path class="st1" d="M6.3,9c2.9,0,5.2-1.7,5.2-3.8S9.2,1.4,6.3,1.4S1.1,3.1,1.1,5.2S3.5,9,6.3,9z M6.3,6C6.7,6,7,5.7,7,5.2
		c0-0.4-0.3-0.8-0.7-0.8c-0.4,0-0.7,0.3-0.7,0.8C5.6,5.6,5.9,6,6.3,6z"/>
</g>
<path class="st2" d="M15.3,15"/>
<path class="st2" d="M5.4,14.7c-0.1-1.4,0-2.8,0.6-3.1c1.2-0.6,3.6,3,4.6,2.4c0.8-0.5-0.3-3.1,0.8-3.9c0.9-0.7,2.3,0.6,3-0.1
	c0.6-0.6,0.3-2,0-3.7c-0.3-1.4-0.7-2.5-1-3.2"/>
</svg>
